<svg width="45" height="45" viewBox="0 0 45 45" fill="none" xmlns="http://www.w3.org/2000/svg">
<path fill-rule="evenodd" clip-rule="evenodd" d="M11.9907 0C5.36545 0 0 5.46652 0 12.2101V45H29.6278C37.6669 45 44.1925 38.3483 44.1925 30.1623V0H11.9907ZM19.3773 12.5684H19.3591C23.6098 11.9528 27.5704 14.2038 29.4556 17.8695H25.6309C23.8817 17.8695 22.3863 18.9904 21.7971 20.5615C21.779 20.5706 21.7609 20.5798 21.7428 20.589C21.7337 20.589 21.7246 20.6074 21.7156 20.6258C20.9361 21.4159 19.6582 21.4159 18.8697 20.6258C18.8335 20.589 18.8063 20.589 18.7881 20.5615C18.199 18.9904 16.7036 17.8695 14.9544 17.8695H12.0269C13.4408 15.0949 16.1054 13.037 19.3863 12.5684H19.3773ZM28.087 22.059C28.087 23.4371 26.9904 24.558 25.6309 24.558C24.2714 24.558 23.1748 23.4371 23.1748 22.059C23.1748 20.6809 24.2714 19.56 25.6309 19.56C26.9904 19.56 28.087 20.6809 28.087 22.059ZM17.4015 22.059C17.4015 23.4371 16.3048 24.558 14.9453 24.558C13.5858 24.558 12.4892 23.4371 12.4892 22.059C12.4892 20.6809 13.5858 19.56 14.9453 19.56C16.3048 19.56 17.4015 20.6809 17.4015 22.059ZM34.1776 30.6217C34.0869 30.6309 34.0054 30.6401 33.9147 30.6492C33.4162 30.686 32.9359 30.6309 32.4918 30.4931C31.6942 31.0627 30.7516 31.4669 29.7184 31.6139C28.3952 31.8069 27.1082 31.568 25.9934 30.98C24.8515 31.7058 23.5373 32.2295 22.1234 32.4408C19.7851 32.7807 17.5102 32.2479 15.6251 31.0811C15.5254 31.127 15.4257 31.1729 15.326 31.2097L15.2716 31.2281C15.2263 31.2464 15.1719 31.2648 15.1266 31.2832C14.7187 31.4394 14.2928 31.5496 13.8487 31.6047C10.3774 32.11 7.15998 29.6386 6.67056 26.0923C6.2899 23.382 7.6222 20.8187 9.8427 19.56H11.6735C11.1659 20.2583 10.8487 21.1127 10.8487 22.059C10.8487 24.365 12.6976 26.2393 14.9544 26.2393C16.9755 26.2393 18.6613 24.7325 18.9966 22.7664C19.4135 22.9318 19.8576 23.0145 20.3017 23.0145C20.7458 23.0145 21.1808 22.9318 21.6068 22.7664C21.9422 24.7325 23.6279 26.2393 25.649 26.2393C27.9058 26.2393 29.7547 24.3559 29.7547 22.059C29.7547 21.1219 29.4556 20.2583 28.9299 19.56H31.9571C33.1534 20.2583 34.1232 21.324 34.676 22.6378C36.1715 23.0604 37.3678 24.3375 37.5854 26.0096C37.8844 28.2513 36.3799 30.3093 34.1776 30.6125V30.6217Z" fill="#F6F6F6"/>
</svg>
